<svg width="892" height="566" viewBox="0 0 892 566" fill="none" xmlns="http://www.w3.org/2000/svg">
<path opacity="0.03" d="M225.236 857.251V858.073C233.33 857.838 241.501 857.838 249.595 858.073C272.257 858.66 287.674 848.796 287.674 831.829C287.674 817.444 275.572 807.581 255.222 806.817C245.201 806.465 235.18 806.406 225.159 806.7V807.522C227.087 809.694 228.166 813.393 228.166 817.562V847.211C228.166 851.321 227.087 855.078 225.159 857.368L225.236 857.251ZM241.424 814.802C245.818 814.802 250.211 814.92 254.605 815.096C266.63 815.507 274.261 822.317 274.261 832.063C274.261 843.395 264.934 850.147 250.751 849.736C247.668 849.677 244.584 849.618 241.501 849.56V814.802H241.424ZM330.146 814.743V813.922C323.749 812.982 317.351 812.102 310.953 811.338V812.16C312.88 814.626 313.959 818.501 313.959 822.611V852.26C313.959 856.37 312.88 859.952 310.953 861.948V862.77C317.351 863.533 323.749 864.414 330.146 865.353V864.531C328.219 862.006 327.14 858.131 327.14 854.022V824.372C327.14 820.262 328.219 816.681 330.146 814.743ZM390.888 832.063C396.823 833.355 402.373 836.291 406.767 840.577L407.769 840.459V829.891C403.838 827.073 399.367 825.194 393.432 823.902C370.923 818.971 353.271 829.187 353.271 846.448C353.271 861.302 363.6 871.577 382.563 875.569C391.967 877.565 401.834 877.33 407.692 874.747V865.059L406.767 864.825C400.986 867.936 392.275 868.934 384.875 867.408C373.775 865.001 366.761 857.427 366.761 847.681C366.761 835.351 376.55 828.952 390.734 832.063H390.888ZM461.881 847.387C469.358 848.914 473.675 850.558 477.452 853.024H478.377V842.397C459.569 838.639 440.838 834.706 422.029 830.831V841.457L422.954 841.868C426.654 840.87 431.048 841.046 438.525 842.573L443.69 843.63V875.862C443.69 879.972 442.611 883.495 440.684 885.315V886.137C447.081 887.487 453.479 888.779 459.877 890.129V889.307C457.95 886.665 456.871 882.732 456.871 878.622V846.389L462.035 847.446L461.881 847.387ZM515.685 850.264V849.442C509.287 848.327 502.889 847.152 496.492 845.919V846.741C498.419 849.325 499.498 853.258 499.498 857.368V881.323C499.498 893.006 507.669 900.991 522.777 903.574C542.356 906.921 555.768 899.465 555.768 886.02V866.645C555.768 862.535 556.848 858.953 558.775 856.957C558.775 856.664 558.775 856.429 558.775 856.135C552.685 855.313 546.596 854.433 540.506 853.493V854.315C542.433 856.84 543.512 860.715 543.512 864.883V885.256C543.512 893.417 537.577 896.705 525.629 894.709C516.919 893.241 512.679 888.897 512.679 881.851V859.775C512.679 855.666 513.758 852.143 515.685 850.205V850.264ZM583.21 909.681V910.502C589.299 911.089 595.389 911.618 601.479 912.088V911.266C599.552 908.917 598.472 905.101 598.472 900.991V876.508C604.485 883.436 610.497 890.247 616.51 896.94C616.741 897.175 617.204 897.175 617.435 896.94C623.447 890.775 629.46 884.493 635.472 878.152V902.576C635.472 906.686 634.393 910.444 632.466 912.616V913.438C638.864 913.555 645.262 913.438 651.66 913.321V912.499C649.733 910.326 648.653 906.627 648.653 902.459V872.809C648.653 868.7 649.733 864.942 651.66 862.652V861.83C646.418 861.948 641.176 862.007 635.935 862.007C629.999 868.465 624.064 874.864 618.052 881.146C612.116 874.395 606.181 867.525 600.168 860.539C594.541 860.128 588.837 859.658 583.21 859.071V859.893C585.137 862.3 586.216 866.116 586.216 870.285V899.934C586.216 904.044 585.137 907.684 583.21 909.739V909.681ZM1294.92 895.12C1311.72 894.709 1321.13 887.84 1321.13 877.213C1321.13 866.058 1311.88 861.419 1294.99 861.83C1285.74 862.007 1276.49 861.948 1267.17 861.596V862.418C1269.09 864.707 1270.17 868.465 1270.17 872.575V902.224C1270.17 906.334 1269.09 910.033 1267.17 912.205V913.027C1273.57 913.262 1279.96 913.379 1286.36 913.321V912.499C1284.43 910.268 1283.35 906.569 1283.35 902.4V895.179C1287.21 895.179 1291.06 895.179 1294.92 895.061V895.12ZM1283.35 870.285C1287.05 870.285 1290.83 870.285 1294.53 870.167C1302.78 869.991 1307.56 872.986 1307.56 878.563C1307.56 883.671 1303.4 886.665 1295.46 886.841C1291.37 886.959 1287.36 886.959 1283.28 886.959V870.285H1283.35ZM1374.85 906.217C1382.18 905.16 1389.42 903.985 1396.74 902.811V901.989C1393.74 900.345 1390.73 896.823 1387.42 892.126C1379.01 880.148 1370.69 867.995 1362.29 855.783C1361.13 855.959 1359.98 856.077 1358.82 856.253C1351.03 870.578 1343.25 884.728 1335.46 898.819C1332.46 904.279 1329.53 908.565 1326.68 910.913V911.735C1333.23 911.207 1339.78 910.62 1346.33 909.915V909.152C1344.48 907.097 1344.4 902.929 1346.72 898.701C1355.81 897.703 1364.99 896.529 1374.08 895.237C1376.55 898.819 1376.63 903.046 1374.93 905.512V906.275L1374.85 906.217ZM1351.19 890.012L1359.74 873.866L1368.99 887.722C1363.06 888.544 1357.12 889.307 1351.26 889.953L1351.19 890.012ZM1436.36 851.614C1443.76 850.029 1452.47 851.086 1458.26 854.139L1459.18 853.904V844.217C1453.4 841.692 1443.53 841.399 1434.13 843.395C1415.55 847.387 1404.84 858.131 1404.84 873.338C1404.84 890.423 1422.26 900.11 1445 895.061C1450.93 893.711 1455.4 891.891 1459.18 889.073V878.505L1458.18 878.387C1453.71 882.673 1448.24 885.609 1442.3 886.959C1428.27 890.071 1418.33 883.26 1418.33 870.696C1418.33 861.126 1425.11 854.08 1436.44 851.614H1436.36ZM1513.22 836.702C1520.69 835.175 1525.01 835.058 1528.79 836.056L1529.71 835.704V825.077C1510.9 828.776 1492.17 832.709 1473.36 836.643V847.27H1474.29C1477.99 844.745 1482.38 843.101 1489.86 841.575L1495.02 840.518V872.751C1495.02 876.861 1493.95 880.794 1492.02 883.436V884.258C1498.42 882.908 1504.81 881.616 1511.21 880.325V879.503C1509.29 877.682 1508.21 874.16 1508.21 870.05V837.817L1513.37 836.76L1513.22 836.702ZM1583.05 868.347C1598.24 865.94 1607.1 857.838 1607.1 845.861V822.846C1607.1 818.736 1608.18 814.861 1610.11 812.395V811.573C1604.02 812.336 1597.93 813.217 1591.84 814.098V814.92C1593.77 816.857 1594.85 820.439 1594.85 824.548V847.094C1594.85 854.08 1590.92 857.838 1582.36 859.247C1570.49 861.126 1564.09 857.838 1564.09 849.618V829.597C1564.09 825.488 1565.17 821.554 1567.1 818.971V818.149C1560.7 819.264 1554.3 820.439 1547.9 821.613V822.435C1549.83 824.313 1550.91 827.836 1550.91 831.946V852.26C1550.91 865.294 1563.78 871.518 1583.05 868.406V868.347ZM1634.54 859.482V860.304C1640.63 859.717 1646.72 859.247 1652.81 858.895V858.073C1650.89 855.959 1649.81 852.319 1649.81 848.209V823.726C1655.82 829.774 1661.83 835.88 1667.84 842.162C1668.15 842.162 1668.46 842.162 1668.77 842.162C1674.78 835.528 1680.79 829.01 1686.81 822.611V847.035C1686.81 851.145 1685.73 854.902 1683.8 857.133V857.955C1690.2 857.955 1696.6 858.014 1702.99 858.249V857.427C1701.07 855.137 1699.99 851.38 1699.99 847.27V817.62C1699.99 813.511 1701.07 809.812 1702.99 807.639V806.817C1697.75 806.641 1692.51 806.524 1687.27 806.524C1681.33 813.041 1675.4 819.617 1669.39 826.368C1663.45 820.028 1657.52 813.804 1651.5 807.698C1645.88 808.05 1640.17 808.52 1634.54 809.048V809.87C1636.47 811.925 1637.55 815.565 1637.55 819.675V849.325C1637.55 853.435 1636.47 857.251 1634.54 859.658V859.482ZM841.978 918.84C836.042 911.501 830.107 904.162 824.172 896.705C818.082 895.766 812.069 894.768 806.057 893.711V894.533C807.984 897.116 809.063 900.991 809.063 905.16V934.809C809.063 938.919 807.984 942.5 806.057 944.379V945.201C812.147 946.258 818.159 947.256 824.249 948.195V947.373C822.321 944.849 821.242 940.974 821.242 936.805V912.323C827.255 919.72 833.267 927.059 839.28 934.339L840.205 934.457C846.217 928.879 852.23 923.184 858.242 917.489V941.913C858.242 946.023 857.163 949.663 855.236 951.659V952.481C861.634 953.244 868.109 953.949 874.507 954.595V953.773C872.58 951.366 871.5 947.491 871.5 943.381V913.732C871.5 909.622 872.58 905.982 874.507 903.927V903.105C869.65 902.635 864.794 902.107 859.938 901.578C853.926 907.391 847.99 913.203 842.055 918.898L841.978 918.84ZM925.613 949.957C922.375 949.839 919.061 949.663 915.823 949.487V935.396C918.752 935.572 921.604 935.69 924.534 935.807C931.24 936.101 935.017 936.512 938.408 937.392L939.411 937.216V926.942L938.408 926.707C935.094 927.353 931.317 927.588 924.534 927.294C921.604 927.177 918.752 927 915.823 926.883V914.319C919.061 914.495 922.375 914.671 925.613 914.788C933.167 915.082 938.486 915.904 942.263 917.489L943.188 917.313V907.215C928.619 906.862 914.05 906.217 899.559 905.16V905.982C901.563 908.33 902.642 912.146 902.642 916.256V945.906C902.642 950.015 901.563 953.655 899.559 955.769V956.591C914.898 957.648 930.238 958.352 945.577 958.705V947.902L944.575 947.667C939.642 949.663 933.552 950.309 925.69 949.957H925.613ZM969.242 941.15C969.242 953.01 979.956 960.29 997.531 959.644C1014.8 958.998 1026.05 950.25 1026.05 938.156V916.315C1026.05 912.205 1027.13 908.389 1029.14 906.04V905.218C1022.97 905.629 1016.8 906.04 1010.64 906.334V907.156C1012.64 909.27 1013.72 912.968 1013.72 917.078V939.213C1013.72 946.317 1008.63 950.016 998.148 950.426C987.896 950.779 982.5 947.139 982.5 939.976V918.252C982.5 914.143 983.579 910.385 985.583 908.095V907.273C979.108 907.449 972.633 907.508 966.158 907.508V908.33C968.163 910.561 969.242 914.26 969.242 918.428V941.209V941.15ZM1072.15 951.718C1070.22 949.722 1069.14 946.141 1069.14 941.972V917.489C1075.15 923.243 1081.17 928.938 1087.18 934.574L1088.1 934.457C1094.12 927.177 1100.13 919.896 1106.14 912.499V936.923C1106.14 941.032 1105.06 944.966 1103.13 947.491V948.313C1109.53 947.315 1115.85 946.258 1122.25 945.142V944.32C1120.32 942.442 1119.25 938.919 1119.25 934.75V905.101C1119.25 900.991 1120.32 897.057 1122.25 894.474V893.652C1116.78 894.592 1111.31 895.531 1105.83 896.412C1099.9 903.868 1093.96 911.266 1088.03 918.605C1082.09 912.91 1076.08 907.156 1070.14 901.343C1064.75 901.989 1059.35 902.576 1053.88 903.105V903.927C1055.88 905.982 1056.89 909.563 1056.89 913.732V943.381C1056.89 947.491 1055.81 951.366 1053.88 953.773V954.595C1060.05 954.008 1066.13 953.303 1072.3 952.599V951.777L1072.15 951.718ZM1706.54 786.445C1721.88 786.914 1732.13 787.971 1747.47 790.202V882.849C1574.11 858.131 1400.75 954.477 1227.39 929.76V837.113C1334 852.319 1439.83 821.906 1546.44 801.827C1546.21 799.889 1546.28 794.899 1546.59 792.316C1448.16 810.869 1349.65 838.287 1251.21 830.243V821.495C1251.21 811.632 1235.26 803.882 1194.48 812.513C1164.11 818.912 1136.28 831.242 1136.28 849.207V861.008C1023.28 882.849 904.877 882.849 791.874 861.008V849.207C791.874 831.242 764.047 818.912 733.676 812.513C692.899 803.882 676.943 811.573 676.943 821.495V830.243C578.508 838.287 479.996 810.81 381.561 792.316C381.869 794.958 381.946 799.889 381.715 801.827C488.321 821.906 594.156 852.319 700.762 837.113V929.76C527.402 954.477 354.042 858.131 180.683 882.849V790.202C196.022 788.03 206.274 786.914 221.614 786.445C218.068 783.098 215.524 779.751 213.828 777.286C197.024 778.107 185.153 779.693 168.349 782.687V894.239C349.957 862.183 531.487 969.273 713.095 937.216V923.36C724.58 923.83 735.757 926.237 747.782 931.521V962.932C888.305 997.689 1039.7 997.689 1180.22 962.932V931.521C1192.24 926.296 1203.5 923.83 1214.91 923.36V937.275C1396.51 969.332 1578.04 862.241 1759.65 894.298V782.746C1742.85 779.751 1730.98 778.166 1714.17 777.344C1712.48 779.81 1709.93 783.156 1706.39 786.503L1706.54 786.445ZM1168.27 956.415C1035.15 987.356 893.007 987.356 759.884 956.415V863.65C893.007 894.592 1035.15 894.592 1168.27 863.65V956.415ZM1675.71 63.2913C1668.69 57.5375 1661.14 52.1361 1653.12 47.2043L1637.17 59.886C1632.16 56.5981 1626.76 53.4864 1621.06 50.5509L1632.77 35.5793C1621.9 29.943 1604.64 22.1343 1593.07 17.5548L1581.36 32.5263C1575.27 30.1192 1569.1 28.0055 1562.93 26.1855L1570.03 9.4526C1557.15 5.40149 1543.74 2.17234 1530.1 0L1522.08 50.727C1551.14 52.5471 1600.63 72.2155 1607.72 75.0337C1636.86 74.4465 1647.57 73.742 1675.78 63.35L1675.71 63.2913ZM1303.24 511.556C1299.93 507.622 1288.98 506.096 1284.51 508.385C1265.47 518.132 1297.77 539.15 1322.2 531.577C1307.25 523.533 1305.79 514.491 1303.24 511.497V511.556ZM1265.63 606.199C1269.94 609.663 1279.04 601.15 1280.97 595.983C1282.51 591.756 1276.49 589.466 1276.49 589.466C1268.4 585.474 1260.92 584.065 1254.37 584.065C1237.18 584.065 1226.31 594.046 1226.31 594.046C1237.8 592.813 1253.29 596.453 1265.55 606.258L1265.63 606.199ZM1268.17 652.053C1270.17 652.582 1271.1 651.994 1271.1 651.29C1271.64 646.006 1269.94 635.731 1263.01 635.438C1246.89 634.733 1233.02 644.655 1226.85 654.989C1237.03 651.818 1257.07 649.235 1268.17 652.053ZM1325.21 568.037C1328.37 564.984 1323.59 561.167 1323.59 561.167C1314.57 553.476 1305.4 551.128 1297.46 551.128C1284.82 551.128 1275.57 557.175 1275.57 557.175C1275.57 557.175 1296.92 561.109 1305.79 575.023C1306.33 575.904 1308.25 575.787 1309.49 575.552C1318.12 573.732 1321.97 571.09 1325.21 568.095V568.037ZM1555.38 798.833C1563.71 790.495 1581.28 775.994 1591.15 773.763C1600.32 771.767 1603.63 744.7 1589.68 747.93C1553.07 756.501 1555.38 798.833 1555.38 798.833ZM1591.53 796.602C1597.85 792.785 1605.41 791.787 1616.12 789.85C1641.33 784.683 1638.48 762.607 1612.96 768.537C1599.47 771.649 1592.69 785.975 1591.53 796.602ZM1570.1 750.454C1577.2 747.988 1575.81 725.795 1564.94 729.611C1536.57 739.768 1542.28 775.054 1542.28 775.054C1552.68 760.846 1566.33 751.687 1570.03 750.395L1570.1 750.454ZM1398.13 466.7C1415.71 478.031 1407.92 491.183 1412.78 481.202C1413.24 480.262 1421.33 455.369 1409.77 448.734C1394.97 440.162 1386.34 457.189 1398.21 466.7H1398.13ZM1315.42 508.972C1330.61 521.185 1349.95 519.13 1360.44 514.022C1360.44 514.022 1341.78 510.264 1331.84 498.581C1327.29 493.238 1320.97 492.651 1317.04 494.529C1310.87 497.524 1313.26 507.446 1315.42 508.972ZM1452.55 117.013C1410.85 124.175 1406.92 102.98 1406.92 102.98C1406.92 102.98 1391.66 129.342 1423.72 134.744C1445.07 138.325 1466.12 121.71 1504.43 133.276C1504.43 133.276 1494.25 109.85 1452.55 117.013ZM1308.56 509.56C1308.56 509.56 1308.56 509.325 1308.56 508.679C1300.16 490.126 1325.52 481.906 1337.31 496.76C1337.31 496.76 1344.79 490.537 1343.71 485.018C1342.94 480.85 1338.39 477.327 1338.39 477.327C1338.7 466.524 1331.76 465.819 1337.39 460.242C1337.39 460.242 1346.25 457.835 1347.41 457.541C1350.88 456.778 1364.99 454.605 1373.31 459.889C1380.09 464.175 1384.41 466.113 1388.57 463.588C1381.94 451.729 1392.5 438.929 1406.69 442.452C1407.15 439.751 1405.92 435.289 1393.43 433.528C1393.43 433.528 1371.61 431.59 1368.38 431.649C1368.38 431.649 1417.33 399.534 1425.42 393.897C1425.42 393.897 1418.56 419.848 1439.37 435.348C1439.37 435.348 1461.88 414.388 1467.58 403.056C1473.21 391.666 1471.44 389.729 1471.44 389.729C1475.29 392.606 1519.07 402 1531.18 365.011C1538.11 375.051 1527.48 405.053 1479.76 402.411C1479.76 402.411 1472.67 416.267 1468.35 419.907C1500.19 436.405 1540.5 464.821 1543.82 472.512C1543.82 472.512 1540.66 499.52 1478.3 508.033C1464.89 509.853 1437.6 515.372 1422.49 527.819C1399.52 546.783 1396.59 590.23 1375.24 596.982C1375.85 596.982 1389.58 599.917 1408.85 588.468L1418.56 614.947C1418.56 614.947 1383.41 612.716 1342.4 628.686C1342.4 628.686 1336.16 616.767 1341.86 606.786C1347.87 596.218 1353.65 567.332 1331.76 567.449C1330.07 573.555 1313.11 582.186 1304.48 579.896C1303.4 581.012 1299.54 586.296 1309.56 597.04C1309.56 597.04 1297.08 589.995 1286.75 593.283C1288.21 600.504 1275.34 613.773 1265.32 611.366C1264.78 611.248 1264.39 611.366 1264.16 611.601C1263.93 611.836 1255.6 620.114 1267.78 632.032C1270.25 633.031 1272.87 634.851 1274.34 637.962C1276.42 642.366 1278.27 650.585 1276.03 653.873C1276.19 655.693 1282.82 660.625 1295.69 657.572C1295.69 657.572 1293.68 664.441 1282.58 665.909C1282.58 665.909 1295.53 694.854 1337.08 676.771C1337.08 676.771 1334 687.28 1321.2 692.153C1321.2 692.153 1353.35 711.058 1383.95 688.924C1383.95 688.924 1379.79 698.67 1369.69 705.422C1369.69 705.422 1424.34 707.418 1435.59 682.994C1435.59 682.994 1439.14 689.511 1435.29 695.5C1435.29 695.5 1446.85 691.918 1452.63 680.294C1458.41 668.669 1466.74 663.443 1477.99 662.445C1490.4 661.388 1497.41 647.767 1495.41 639.9C1492.94 630.154 1488.4 582.715 1488.24 572.146C1488.09 561.637 1530.87 563.751 1570.41 555.59C1570.41 555.59 1583.05 539.561 1586.21 524.296C1589.37 509.09 1574.11 492.416 1574.11 492.416C1608.72 512.848 1596.62 534.923 1582.67 560.521C1577.43 570.091 1570.72 583.947 1575.58 591.228C1580.43 598.508 1599.32 622.169 1589.53 662.563C1589.53 662.563 1605.41 665.792 1619.67 655.224C1624.76 663.15 1637.86 682.935 1650.12 694.854C1652.89 716.049 1635.55 740.532 1626.53 737.185C1614.73 732.841 1591.76 718.339 1576.12 728.555C1580.36 733.134 1580.9 741.001 1579.43 746.403C1582.36 745.287 1587.83 743.291 1591.69 743.291C1605.02 743.291 1606.72 757.206 1603.25 767.246C1608.49 764.369 1615.35 763.077 1620.9 763.077C1639.17 763.077 1647.73 779.692 1628.53 790.319C1633 793.255 1639.94 796.895 1645.64 797.541C1661.22 799.302 1679.33 774.585 1681.26 767.833C1681.26 767.833 1682.49 774.702 1681.95 792.727C1681.95 792.727 1720.03 783.274 1709.39 736.892C1709.39 736.892 1724.96 738.829 1724.27 763.899C1724.27 763.899 1737.14 754.036 1738.14 734.132C1738.92 718.104 1733.44 714.875 1736.45 706.185C1736.45 706.185 1748.17 719.278 1746.55 735.072C1746.55 735.072 1758.73 723.388 1754.95 709.708C1751.17 696.028 1743.39 691.566 1736.53 686.341C1723.65 676.653 1722.19 658.159 1729.36 647.121C1729.36 647.121 1719.57 649.059 1709.01 644.655C1700.84 641.25 1684.19 621.699 1685.5 612.423C1686.65 603.733 1696.91 588.175 1694.9 577.313C1716.33 613.597 1743.46 636.26 1784.86 636.26C1826.25 636.26 1851.92 601.855 1851.92 573.027C1851.92 531.048 1815.3 492.416 1815.3 464.528C1815.3 451.67 1827.72 432.236 1842.98 432.236C1858.24 432.236 1837.81 458.304 1839.74 473.158C1840.97 482.317 1846.52 490.185 1852.3 496.056C1853.54 490.126 1857.93 484.02 1862.71 481.084C1861.79 505.156 1882.14 518.895 1879.21 545.198C1897.71 532.164 1909.81 521.596 1904.1 496.526C1909.35 497.876 1916.36 499.226 1921.99 498.111C1912.81 489.891 1913.97 461.71 1907.42 449.908C1914.36 449.263 1924.3 446.386 1928 439.047C1896.4 434.115 1900.56 410.043 1857.39 410.043C1809.29 410.043 1784.63 433.645 1784.63 468.227C1784.63 502.808 1819.62 531.048 1819.62 568.213C1819.62 597.334 1804.13 609.546 1786.4 609.546C1762.66 609.546 1739.92 591.521 1721.42 542.203C1713.32 518.895 1702.84 487.601 1684.73 466.289C1680.33 465.761 1662.14 465.585 1643.26 452.844C1643.26 452.844 1639.63 465.526 1625.3 473.628C1625.3 473.628 1575.58 462.884 1586.14 424.134C1586.14 424.134 1588.68 454.664 1624.22 463.353C1624.22 463.353 1635.08 450.789 1638.4 437.52C1638.4 437.52 1657.98 457.424 1688.27 459.655C1688.27 459.655 1697.75 450.965 1697.91 432.177C1697.91 432.177 1719.49 442.98 1748.24 438.694C1748.24 438.694 1758.65 424.897 1749.94 397.655C1773.99 403.174 1803.82 395.717 1814.84 385.913C1810.6 381.274 1788.87 362.721 1774.99 356.615C1774.99 356.615 1855 375.638 1881.06 330.371C1881.06 330.371 1843.13 327.729 1809.14 312.464C1809.14 312.464 1885.76 307.415 1917.52 242.01C1917.52 242.01 1879.67 250.054 1837.27 244.652C1837.27 244.652 1922.91 231.618 1920.06 173.141C1920.06 173.141 1906.96 185.705 1862.79 189.404C1862.79 189.404 1935.4 128.696 1900.1 79.9068C1900.1 79.9068 1897.24 108.323 1853.38 134.978C1853.38 134.978 1899.79 55.8349 1844.29 3.64015C1845.68 35.1684 1821.47 67.4011 1801.58 89.5942C1801.58 89.5942 1808.14 34.64 1772.45 20.3143C1772.45 20.3143 1776.92 86.5999 1704.61 174.198C1672.7 212.83 1654.36 233.086 1679.02 269.194C1691.74 287.805 1661.91 326.203 1613.89 326.555C1532.49 327.201 1626.07 215.003 1626.07 215.003C1626.07 215.003 1631.15 225.923 1641.87 231.735C1641.87 231.735 1654.43 216.294 1650.42 190.344C1648.5 178.19 1646.96 176.37 1643.41 168.855C1643.41 168.855 1653.89 170.558 1661.22 166.213C1661.22 166.213 1656.67 140.732 1646.49 128.109C1639.63 119.537 1635.08 116.895 1632.85 116.132C1640.94 117.893 1678.33 124.88 1695.21 109.204C1700.3 104.448 1700.99 96.6983 1700.53 96.6983C1700.45 96.6983 1693.36 101.16 1673.32 101.102C1673.32 101.102 1726.97 91.8252 1714.25 45.0907C1710.16 49.9637 1698.76 61.119 1675.86 68.9864C1647.42 78.7912 1639.32 79.6132 1606.02 80.259C1591.84 74.4465 1546.28 56.5395 1517.92 55.7762C1515.91 55.7762 1497.26 55.8936 1492.4 67.4012C1492.4 67.4012 1459.34 60.4144 1444.15 79.4958C1432.97 93.5279 1441.53 108.382 1441.53 108.382C1443.46 98.4597 1469.36 90.1226 1482.31 102.335C1502.27 124.469 1513.22 116.367 1530.71 126.759C1538.96 131.632 1544.82 137.914 1546.05 140.262C1528.17 135.389 1493.41 148.658 1478.84 144.783C1477.14 144.314 1470.74 143.257 1462.96 137.679C1462.96 137.679 1458.72 156.467 1481.15 165.274C1485.47 166.976 1500.81 169.384 1514.91 165.509C1519.69 164.158 1524.93 163.277 1526.78 162.632C1549.37 170.088 1573.42 172.73 1586.37 158.052C1594.31 149.011 1590.99 139.147 1589.45 137.268C1589.45 137.268 1600.24 145.547 1593.61 162.045C1589.61 172.026 1571.41 180.539 1546.29 176.018C1536.73 174.315 1526.24 170.969 1526.24 170.969C1506.12 192.164 1469.2 188.758 1434.98 192.927C1434.98 192.927 1419.02 181.537 1401.68 176.018C1352.34 160.225 1342.86 130.047 1296.92 121.827C1279.73 118.774 1279.19 118.48 1273.49 115.369C1263.24 109.732 1252.14 104.213 1240.34 109.791C1237.57 111.083 1237.41 111.024 1234.56 113.783C1245.66 114.429 1255.37 122.708 1251.83 133.393C1251.37 134.861 1250.83 136.916 1250.83 136.916C1266.63 135.507 1281.66 151.476 1263.39 163.747C1265.09 165.391 1268.4 168.033 1273.64 169.09C1285.05 171.497 1293.84 159.226 1308.1 161.81C1310.1 162.162 1313.26 163.571 1314.03 165.215C1314.73 166.565 1322.13 179.776 1313.19 188.758C1308.48 193.455 1308.56 196.508 1309.02 197.976C1328.29 194.277 1337.85 200.677 1338.93 210.54C1342.86 209.601 1344.79 204.845 1345.02 201.851C1345.25 198.857 1345.95 187.232 1345.95 183.944C1350.19 187.878 1366.37 202.908 1380.56 215.825C1376.78 219.817 1373.39 224.455 1370.46 229.857C1377.4 227.332 1384.41 225.688 1390.35 224.631C1391.58 225.747 1392.74 226.804 1393.89 227.802C1320.89 263.029 1334.15 314.225 1334.15 314.225C1334.15 314.225 1337.93 297.375 1363.98 291.621C1363.98 291.621 1335.69 318.805 1354.27 357.203C1354.27 357.203 1370.46 340 1407.84 342.29C1407.84 342.29 1378.17 364.894 1362.98 388.32C1347.8 411.746 1320.74 426.659 1315.81 430.592C1310.87 434.526 1290.14 449.556 1285.9 459.244C1277.27 479.029 1279.5 478.442 1270.33 486.192C1266.47 489.48 1255.84 498.522 1263.47 510.029C1263.47 510.029 1266.09 514.374 1272.87 517.603C1271.56 509.09 1281.89 500.577 1296.69 503.865C1299.08 504.393 1304.09 505.567 1308.48 509.853L1308.56 509.56ZM1557.92 90.9445C1534.65 114.958 1512.83 88.5374 1512.83 88.5374L1512.6 88.2438C1522.7 89.9465 1523.01 87.4219 1531.02 85.5431C1527.71 89.5355 1531.48 94.5847 1537.5 94.5847C1543.97 94.5847 1547.6 88.6548 1543.12 84.8972C1548.44 85.6605 1550.76 87.2457 1557.92 91.062V90.9445ZM1216.45 152.592C1226.08 140.732 1237.72 138.971 1241.5 136.857C1244.51 135.155 1244.89 133.628 1245.82 130.458C1247.97 123.119 1241.5 118.539 1235.1 118.539C1222.54 118.539 1206.66 137.151 1216.45 152.592ZM1319.35 201.323C1307.87 201.91 1301.16 208.955 1292.45 216.177C1339.63 221.226 1334.92 200.618 1319.35 201.323ZM1257.76 157.876C1260.69 157.113 1264.01 155.117 1264.01 150.185C1264.08 141.319 1250.52 142.2 1250.52 142.2C1233.87 142.2 1220.3 166.507 1236.57 184.003C1236.72 172.084 1242.81 161.927 1257.76 157.876ZM320.511 75.0337C327.603 72.1568 377.09 52.4883 406.15 50.727L398.134 0C384.49 2.17234 371.155 5.40149 358.205 9.4526L365.296 26.1855C359.13 28.0055 352.963 30.1192 346.873 32.5263L335.157 17.5548C323.594 22.1343 306.328 29.943 295.459 35.5793L307.176 50.5509C301.472 53.4864 296.076 56.5981 291.065 59.886L275.109 47.2043C267.093 52.1948 259.538 57.5963 252.524 63.2913C280.736 73.742 291.528 74.3878 320.588 74.9749L320.511 75.0337ZM605.872 531.694C630.308 539.209 662.683 518.249 643.566 508.503C639.018 506.213 628.072 507.74 624.835 511.673C622.291 514.609 620.749 523.65 605.872 531.753V531.694ZM701.764 594.105C701.764 594.105 690.895 584.124 673.705 584.124C667.153 584.124 659.753 585.591 651.583 589.525C651.583 589.525 645.57 591.815 647.112 596.042C649.039 601.267 658.135 609.781 662.451 606.258C674.708 596.453 690.201 592.813 701.687 594.046L701.764 594.105ZM701.224 655.047C695.057 644.655 681.26 634.733 665.072 635.496C658.135 635.79 656.516 646.123 656.979 651.349C656.979 652.053 657.826 652.64 659.908 652.112C671.008 649.294 690.972 651.877 701.224 655.047ZM618.591 575.552C619.824 575.787 621.752 575.963 622.291 575.023C631.156 561.109 652.508 557.175 652.508 557.175C652.508 557.175 643.181 551.128 630.616 551.128C622.754 551.128 613.504 553.476 604.485 561.167C604.485 561.167 599.706 565.042 602.866 568.037C606.027 571.031 609.958 573.673 618.591 575.493V575.552ZM338.394 748.047C324.442 744.818 327.834 771.884 336.93 773.88C346.796 776.052 364.371 790.613 372.696 798.95C372.696 798.95 375.009 756.619 338.394 748.047ZM315.192 768.596C289.678 762.666 286.903 784.742 312.032 789.908C322.747 791.846 330.301 792.844 336.622 796.66C335.542 785.975 328.682 771.708 315.192 768.596ZM385.8 775.113C385.8 775.113 391.505 739.827 363.138 729.67C352.346 725.795 350.882 748.047 357.973 750.513C361.673 751.804 375.317 760.905 385.723 775.172L385.8 775.113ZM518.383 448.734C506.744 455.369 514.914 480.262 515.377 481.202C520.233 491.183 512.448 478.031 530.023 466.7C541.894 457.189 533.183 440.162 518.46 448.734H518.383ZM611.037 494.529C607.106 492.592 600.708 493.238 596.237 498.581C586.293 510.264 567.639 514.022 567.639 514.022C578.122 519.13 597.47 521.185 612.656 508.972C614.891 507.446 617.204 497.524 611.037 494.529ZM423.648 133.276C461.958 121.71 483.002 138.325 504.354 134.744C536.421 129.401 521.158 102.98 521.158 102.98C521.158 102.98 517.227 124.175 475.525 117.013C433.823 109.85 423.648 133.276 423.648 133.276ZM384.952 84.7798C380.482 88.5374 384.105 94.4673 390.58 94.4673C396.515 94.4673 400.292 89.4181 397.055 85.4257C405.071 87.3045 405.38 89.829 415.477 88.1264L415.246 88.4199C415.246 88.4199 393.432 114.84 370.153 90.8271C377.398 87.0696 379.711 85.4256 384.952 84.6624V84.7798ZM692.899 118.48C686.501 118.48 680.026 123.06 682.185 130.399C683.109 133.569 683.495 135.096 686.501 136.798C690.201 138.912 701.918 140.673 711.553 152.533C721.343 137.092 705.464 118.48 692.899 118.48ZM635.549 216.177C626.762 208.955 620.133 201.91 608.647 201.323C593.077 200.618 588.375 221.226 635.549 216.177ZM691.512 184.003C707.776 166.507 694.21 142.2 677.56 142.2C677.56 142.2 663.993 141.261 664.07 150.185C664.07 155.117 667.385 157.113 670.314 157.876C685.345 161.868 691.435 172.084 691.512 184.003ZM1255.84 658.57C1235.64 655.928 1211.05 667.083 1211.05 667.083C1221.3 633.265 1248.98 629.801 1253.68 628.392C1253.68 628.392 1250.98 621.288 1251.6 617.472C1252.21 613.656 1254.68 609.017 1254.68 609.017C1234.48 594.985 1207.2 600.915 1207.2 600.915C1207.2 600.915 1229.78 576.961 1251.67 576.961C1273.57 576.961 1281.2 583.419 1285.98 585.474C1287.36 586.061 1288.98 584.945 1290.6 584.828C1291.76 581.482 1292.84 578.194 1293.84 574.847C1281.2 562.107 1258.46 560.052 1258.46 560.052C1258.46 560.052 1277.73 543.73 1297.46 543.495C1298.93 543.495 1300.47 543.554 1302.16 543.73C1302.39 542.614 1302.7 541.44 1302.93 540.325C1290.83 538.622 1279.58 533.338 1273.49 526.586L1267.63 523.827C1259.23 519.834 1255.37 514.433 1254.6 513.141C1250.05 506.272 1249.67 498.933 1253.37 491.887C1256.22 486.545 1260.77 482.67 1262.93 480.791C1266.53 477.738 1269.43 473.491 1271.64 468.05C1272.79 465.115 1274.26 461.475 1276.49 456.484C1280.35 447.619 1292.91 437.109 1305.94 427.07C1307.1 426.189 1308.64 424.956 1308.64 424.956C1309.56 424.193 1310.87 423.312 1312.57 422.196C1312.57 421.903 1312.57 224.396 1312.57 224.396C1310.57 224.514 1308.41 224.573 1306.09 224.631C1297.46 224.807 1275.8 221.109 1275.8 221.109C1275.8 221.109 1287.29 209.19 1288.37 208.251C1291.68 205.433 1295.23 202.38 1299.39 199.855V199.737C1298.23 196.391 1298.31 190.931 1305.25 184.003C1309.56 179.658 1306.87 172.319 1305.32 169.031C1304.94 169.031 1304.55 168.973 1304.17 168.973C1301.24 168.973 1297.85 170.499 1294.22 172.143C1289.29 174.374 1283.66 176.899 1276.65 176.899C1274.72 176.899 1272.79 176.723 1270.94 176.312C1264.93 175.079 1259.54 172.26 1255.45 168.327L1254.83 167.681C1252.98 168.796 1251.44 170.147 1250.21 171.791C1241.11 181.596 1245.82 199.385 1245.82 199.385C1240.27 197.272 1217.68 181.713 1219.3 163.688L1215.37 168.562C1215.37 168.562 1201.11 151.359 1203.5 139.969H724.503C726.893 151.359 712.632 168.562 712.632 168.562L708.701 163.688C710.32 181.772 687.734 197.33 682.185 199.385C682.185 199.385 686.887 181.596 677.791 171.791C676.557 170.147 675.016 168.796 673.166 167.681L672.549 168.327C668.464 172.319 663.068 175.079 657.056 176.312C655.206 176.723 653.278 176.899 651.351 176.899C644.337 176.899 638.71 174.374 633.776 172.143C630.154 170.499 626.762 168.973 623.833 168.973C623.447 168.973 623.062 168.973 622.677 169.031C621.135 172.319 618.437 179.658 622.754 184.003C629.691 190.931 629.768 196.391 628.612 199.737V199.855C632.697 202.38 636.243 205.433 639.558 208.251C640.637 209.19 652.122 221.109 652.122 221.109C652.122 221.109 630.462 224.807 621.829 224.631C619.516 224.631 617.358 224.573 615.354 224.396C615.354 224.396 615.354 421.903 615.354 422.196C617.049 423.312 618.36 424.193 619.285 424.956C619.285 424.956 620.904 426.248 621.983 427.07C635.01 437.109 647.574 447.619 651.428 456.484C653.587 461.475 655.051 465.115 656.285 468.05C658.494 473.452 661.398 477.699 664.995 480.791C667.153 482.67 671.701 486.486 674.553 491.887C678.253 498.933 677.868 506.272 673.32 513.141C672.472 514.433 668.695 519.775 660.293 523.827L654.435 526.586C648.345 533.397 637.091 538.622 624.989 540.325C625.22 541.44 625.451 542.614 625.76 543.73C627.456 543.554 628.997 543.495 630.462 543.495C650.195 543.789 669.466 560.052 669.466 560.052C669.466 560.052 646.726 562.107 634.085 574.847C635.087 578.135 636.166 581.482 637.322 584.828C638.941 584.945 640.56 586.061 641.947 585.474C646.726 583.478 653.356 576.961 676.249 576.961C699.143 576.961 720.726 600.915 720.726 600.915C720.726 600.915 693.439 594.985 673.243 609.017C673.243 609.017 675.71 613.656 676.326 617.472C676.943 621.288 674.245 628.392 674.245 628.392C678.947 629.801 706.62 633.265 716.872 667.083C716.872 667.083 692.282 655.928 672.087 658.57C719.57 734.661 806.211 806.054 963.923 833.179C1121.56 806.113 1208.2 734.661 1255.76 658.57H1255.84ZM631.31 503.571C646.11 500.342 656.439 508.796 655.128 517.31C661.912 514.08 664.533 509.736 664.533 509.736C672.241 498.17 661.526 489.187 657.672 485.899C648.499 478.149 650.735 478.736 642.101 458.95C637.862 449.263 617.127 434.232 612.193 430.299C607.337 426.424 580.204 411.452 565.018 388.026C549.833 364.6 520.156 341.996 520.156 341.996C557.541 339.706 573.729 356.909 573.729 356.909C592.383 318.511 564.016 291.328 564.016 291.328C590.07 297.082 593.847 313.932 593.847 313.932C593.847 313.932 607.029 262.794 534.108 227.508C535.264 226.51 536.421 225.453 537.654 224.338C543.589 225.395 550.604 227.038 557.541 229.563C554.612 224.103 551.221 219.465 547.443 215.531C561.704 202.614 577.891 187.584 582.054 183.651C582.054 186.938 582.747 198.563 582.979 201.558C583.21 204.552 585.137 209.308 589.068 210.247C590.148 200.383 599.706 193.984 618.977 197.683C619.439 196.215 619.516 193.162 614.814 188.465C605.872 179.482 613.272 166.272 613.966 164.921C614.814 163.336 617.897 161.868 619.902 161.516C634.162 158.933 642.949 171.204 654.358 168.796C659.599 167.681 662.837 165.098 664.61 163.454C646.418 151.183 661.449 135.213 677.174 136.622C677.174 136.622 676.635 134.567 676.172 133.1C672.626 122.414 682.339 114.136 693.439 113.49C690.587 110.789 690.355 110.848 687.657 109.497C675.941 103.92 664.764 109.497 654.512 115.075C648.808 118.187 648.268 118.48 631.079 121.533C585.214 129.694 575.656 159.931 526.323 175.724C508.979 181.243 493.023 192.633 493.023 192.633C458.875 188.406 421.875 191.811 401.757 170.675C401.757 170.675 391.273 174.022 381.715 175.724C356.586 180.245 338.394 171.732 334.386 161.751C327.757 145.253 338.549 136.975 338.549 136.975C337.084 138.853 333.692 148.717 341.632 157.759C354.582 172.495 378.555 169.853 401.217 162.338C403.067 162.984 408.309 163.865 413.088 165.215C427.117 169.149 442.533 166.683 446.85 164.98C469.281 156.115 465.042 137.386 465.042 137.386C457.333 142.963 450.858 144.02 449.163 144.49C434.594 148.365 399.829 135.096 381.946 139.969C383.18 137.62 389.038 131.338 397.286 126.465C414.784 116.073 425.729 124.175 445.694 102.041C458.644 89.8877 484.621 98.1661 486.471 108.088C486.471 108.088 495.027 93.2343 483.85 79.2022C468.665 60.1209 435.596 67.1076 435.596 67.1076C430.663 55.6001 412.086 55.4239 410.082 55.4826C381.715 56.2459 336.236 74.153 321.976 79.9655C288.676 79.3196 280.582 78.4389 252.139 68.6928C229.245 60.8254 217.837 49.6702 213.751 44.7971C201.032 91.5317 254.605 100.808 254.682 100.808C234.641 100.867 227.549 96.4047 227.472 96.4047C227.009 96.4047 227.703 104.155 232.791 108.91C249.672 124.586 287.057 117.658 295.151 115.838C292.915 116.66 288.367 119.244 281.507 127.816C271.332 140.439 266.784 165.92 266.784 165.92C274.107 170.205 284.591 168.562 284.591 168.562C281.045 176.077 279.426 177.897 277.576 190.05C273.491 216.001 286.132 231.442 286.132 231.442C296.847 225.688 301.934 214.709 301.934 214.709C301.934 214.709 395.513 326.966 314.113 326.261C266.09 325.85 236.259 287.512 248.978 268.9C273.645 232.792 255.222 212.537 223.387 173.904C151.083 86.3063 155.554 20.0207 155.554 20.0207C119.864 34.3464 126.416 89.3006 126.416 89.3006C106.529 67.1663 82.3247 34.8748 83.7122 3.34657C28.2124 55.6001 74.6163 134.685 74.6163 134.685C30.8332 108.03 27.9041 79.6132 27.9041 79.6132C-7.32287 128.403 65.2122 189.111 65.2122 189.111C21.0436 185.412 7.93954 172.847 7.93954 172.847C5.08747 231.383 90.7267 244.358 90.7267 244.358C48.331 249.76 10.4833 241.716 10.4833 241.716C42.3186 307.18 118.862 312.171 118.862 312.171C84.7913 327.436 46.9435 330.078 46.9435 330.078C72.9205 375.403 153.01 356.322 153.01 356.322C139.212 362.428 117.397 380.981 113.158 385.619C124.181 395.424 153.935 402.88 178.062 397.361C169.351 424.662 179.758 438.401 179.758 438.401C208.432 442.687 230.093 431.884 230.093 431.884C230.247 450.672 239.728 459.361 239.728 459.361C270.022 457.13 289.601 437.227 289.601 437.227C292.915 450.496 303.784 463.06 303.784 463.06C339.319 454.371 341.863 423.84 341.863 423.84C352.501 462.531 302.705 473.334 302.705 473.334C288.367 465.174 284.745 452.55 284.745 452.55C265.859 465.291 247.668 465.467 243.274 465.995C225.159 487.308 214.676 518.542 206.582 541.91C188.005 591.228 165.343 609.252 141.601 609.252C123.795 609.252 108.379 597.04 108.379 567.919C108.379 530.696 143.374 502.456 143.374 467.933C143.374 433.41 118.708 409.75 70.608 409.75C27.4415 409.75 31.5269 433.821 0 438.753C3.69998 446.092 13.6437 448.969 20.5811 449.615C14.1062 461.416 15.1853 489.598 6.01247 497.817C11.6395 498.933 18.6541 497.582 23.8957 496.232C18.1916 521.302 30.2936 531.87 48.7936 544.904C45.8644 518.601 66.2143 504.921 65.2893 480.791C70.0685 483.726 74.4622 489.832 75.6955 495.762C81.4767 489.891 87.0267 482.024 88.26 472.865C90.1871 458.011 69.8372 431.943 85.0225 431.943C100.208 431.943 112.695 451.318 112.695 464.234C112.695 492.122 76.0809 530.755 76.0809 572.733C76.0809 601.561 100.131 635.966 143.143 635.966C186.155 635.966 211.67 613.303 233.099 577.02C231.095 587.881 241.347 603.44 242.503 612.129C243.736 621.406 227.164 640.957 218.993 644.362C208.432 648.765 198.643 646.828 198.643 646.828C205.812 657.866 204.424 676.36 191.474 686.047C184.614 691.214 176.828 695.676 173.051 709.415C169.274 723.153 181.453 734.778 181.453 734.778C179.835 718.985 191.551 705.892 191.551 705.892C194.557 714.581 189.085 717.869 189.855 733.839C190.857 753.742 203.73 763.606 203.73 763.606C203.037 738.536 218.607 736.598 218.607 736.598C207.97 782.98 246.049 792.433 246.049 792.433C245.509 774.409 246.743 767.539 246.743 767.539C248.67 774.291 266.784 799.009 282.355 797.247C287.982 796.602 294.997 792.961 299.467 790.026C280.274 779.399 288.83 762.784 307.099 762.784C312.649 762.784 319.509 764.075 324.751 766.952C321.359 756.971 323.055 742.998 336.313 742.998C340.167 742.998 345.717 744.994 348.569 746.109C347.028 740.708 347.644 732.841 351.884 728.261C336.236 718.045 313.265 732.488 301.472 736.892C292.453 740.238 275.109 715.755 277.884 694.56C290.217 682.701 303.322 662.915 308.332 654.93C322.592 665.498 338.471 662.269 338.471 662.269C328.682 621.875 347.567 598.214 352.423 590.934C357.28 583.654 350.496 569.798 345.332 560.228C331.38 534.63 319.278 512.554 353.888 492.122C353.888 492.122 338.703 508.796 341.786 524.003C344.946 539.268 357.588 555.296 357.588 555.296C397.132 563.457 439.836 561.285 439.759 571.853C439.604 582.362 435.056 629.801 432.59 639.606C430.586 647.415 437.677 661.036 450.011 662.152C461.265 663.15 469.59 668.434 475.371 680C481.152 691.566 492.715 695.206 492.715 695.206C488.86 689.218 492.406 682.701 492.406 682.701C503.66 707.125 558.312 705.129 558.312 705.129C548.214 698.435 544.052 688.631 544.052 688.631C574.654 710.765 606.797 691.86 606.797 691.86C594.002 686.987 590.918 676.477 590.918 676.477C632.466 694.56 645.416 665.616 645.416 665.616C634.316 664.148 632.312 657.279 632.312 657.279C645.185 660.331 651.814 655.4 651.968 653.58C649.733 650.292 651.583 642.131 653.664 637.669C655.128 634.557 657.672 632.737 660.216 631.739C672.395 619.879 664.07 611.601 663.839 611.307C663.608 611.014 663.145 610.955 662.683 611.072C652.662 613.421 639.712 600.152 641.253 592.989C630.924 589.701 618.437 596.747 618.437 596.747C628.458 586.061 624.604 580.718 623.524 579.603C614.891 581.893 597.933 573.321 596.237 567.156C574.345 567.038 580.127 595.866 586.139 606.493C591.843 616.474 585.6 628.392 585.6 628.392C544.591 612.364 509.442 614.654 509.442 614.654L519.154 588.175C538.425 599.565 552.223 596.688 552.762 596.688C531.487 589.936 528.558 546.489 505.51 527.525C490.402 515.079 463.115 509.56 449.702 507.74C387.419 499.226 384.182 472.219 384.182 472.219C387.496 464.528 427.811 436.111 459.646 419.613C455.329 415.973 448.238 402.117 448.238 402.117C400.523 404.759 389.886 374.699 396.823 364.718C409.002 401.706 452.708 392.371 456.563 389.435C456.563 389.435 454.79 391.373 460.417 402.763C466.121 414.094 488.629 435.054 488.629 435.054C509.364 419.554 502.581 393.604 502.581 393.604C510.675 399.24 559.623 431.355 559.623 431.355C556.462 431.355 534.571 433.234 534.571 433.234C522.083 435.054 520.85 439.516 521.312 442.159C535.496 438.636 546.056 451.435 539.427 463.295C543.589 465.819 547.906 463.882 554.689 459.596C563.014 454.312 577.12 456.484 580.589 457.247C581.745 457.482 590.61 459.948 590.61 459.948C596.237 465.526 589.3 466.23 589.608 477.033C589.608 477.033 585.06 480.556 584.289 484.725C583.21 490.243 590.61 496.467 590.687 496.467C602.481 481.613 627.841 489.832 619.439 508.385C619.439 509.09 619.439 509.266 619.439 509.266C623.833 504.921 628.843 503.806 631.233 503.277L631.31 503.571ZM909.425 443.568C909.579 439.399 914.59 429.535 930.392 432.765C925.69 446.738 916.748 438.694 909.425 443.568ZM799.12 428.479C815.847 428.361 817.619 439.164 816.463 443.274C811.299 438.577 800.045 445.622 799.12 428.479ZM874.969 445.094C872.965 441.454 874.969 440.573 874.969 440.573C874.969 440.573 880.596 443.157 884.065 442.335C892.852 440.28 901.64 442.569 901.64 442.569C901.871 443.685 900.792 444.155 900.792 444.155C895.319 444.096 890.848 446.092 889.538 447.736C887.071 452.081 886.223 451.2 884.142 451.376C882.446 451.552 881.752 452.14 881.752 455.075C881.752 458.657 880.365 460.711 877.667 460.711C877.667 460.711 876.896 448.734 874.892 445.094H874.969ZM981.19 387.204H946.965V367.771C946.965 360.843 952.977 352.975 964.077 352.975C975.177 352.975 981.19 360.784 981.19 367.771V387.204ZM911.429 271.072L917.056 289.684C924.148 288.803 931.471 288.157 938.948 287.805V268.841C953.131 268.195 974.946 268.195 989.206 268.841V287.805C996.683 288.157 1004.01 288.803 1011.1 289.684L1016.72 271.072C1031.76 272.716 1046.63 275.417 1060.89 279.175L1043.78 319.862L1027.21 333.6C985.121 322.621 942.956 322.621 900.869 333.6L884.296 319.862L867.184 279.175C881.444 275.417 896.321 272.716 911.352 271.072H911.429ZM796.961 422.784C801.124 422.079 809.68 424.251 818.699 429.477C820.934 427.304 821.088 425.543 821.396 423.723C822.244 418.028 809.911 413.331 809.911 413.331C816.309 409.573 827.101 408.575 836.351 415.386C840.128 408.399 825.096 400.121 821.474 400.121C821.474 400.121 834.809 392.312 847.219 398.888C850.919 400.884 854.851 405.581 854.851 405.581C853.078 398.007 858.936 390.022 869.265 387.498C869.265 387.498 866.798 395.013 873.042 401.354C877.821 406.168 880.905 408.34 880.905 408.34C880.905 408.34 883.68 397.949 892.313 397.479C900.33 397.068 904.338 399.299 904.338 399.299C904.338 399.299 895.011 407.812 902.411 419.496C902.411 419.496 908.5 408.869 926.615 411.57C924.225 414.916 919.677 419.907 918.213 427.715C926.229 426.541 933.938 427.246 937.715 429.477C937.484 431.356 935.171 440.045 932.396 442.393C924.071 449.263 914.204 445.388 912.586 450.672C912.586 450.672 912.277 456.778 909.502 460.535C906.727 464.293 892.544 461.651 892.544 461.651C892.005 463.236 892.39 464.586 893.623 465.761C898.634 466.935 901.64 468.05 903.104 470.223C903.413 470.634 903.49 471.397 903.49 472.571C903.49 477.679 893.855 481.848 889.692 481.848C880.134 481.789 871.886 478.912 871.809 474.391C871.732 469.87 884.604 472.571 883.217 467.581C882.6 465.232 878.978 465.291 878.978 465.291C875.971 470.575 854.619 469.401 854.928 465.761C855.005 464.528 855.698 446.033 859.013 439.282C859.013 439.282 854.773 440.632 852.384 441.689C849.378 443.039 830.955 439.047 828.411 442.746C828.411 442.746 841.978 444.448 843.596 450.848C843.905 452.14 847.836 451.552 848.53 452.022C848.915 452.257 852.461 455.604 849.224 465.819C846.603 474.509 860.169 469.459 860.169 474.333C860.169 479.147 846.911 481.965 842.209 481.965C831.34 481.965 820.857 469.401 838.201 465.878C839.434 464.704 839.819 463.353 839.28 461.768C839.28 461.768 825.096 464.469 822.321 460.653C819.546 456.895 819.855 453.725 818.467 451.611C817.08 449.498 808.061 448.793 804.053 446.033C789.253 435.935 795.805 424.721 797.193 422.842L796.961 422.784ZM865.873 501.164C873.659 501.164 883.834 490.537 882.677 484.372C882.677 484.372 885.915 485.84 889.384 485.664C876.819 511.38 854.928 511.615 842.286 485.664C845.832 485.899 848.992 484.372 848.992 484.372C847.836 490.478 857.934 501.164 865.796 501.164H865.873ZM865.873 483.785C883.602 483.785 872.425 495.469 865.951 495.469C859.09 495.469 848.53 483.785 865.873 483.785ZM794.417 453.02C798.965 451.552 806.134 452.903 809.14 455.075C812.146 457.247 811.453 463.823 818.93 466.994C818.93 466.994 818.467 478.912 829.49 484.372C840.282 492.533 848.067 511.086 865.796 511.086C883.525 511.086 891.388 494.471 900.561 485.018C914.281 480.615 912.277 466.994 912.277 466.994C918.444 463.823 918.675 458.128 919.677 455.486C919.677 455.486 926.615 453.255 928.465 452.785C930.315 452.316 931.548 453.431 932.55 454.312C934.169 455.721 938.409 458.422 943.265 460.653C940.413 464.175 933.629 464.41 926.384 463.06C927.771 471.045 934.092 487.954 941.646 493.707C939.256 495.175 933.09 495.175 926.075 493.062C939.333 499.461 936.944 524.942 924.456 536.743C924.842 528.23 922.375 515.196 909.502 510.969C925.921 528.113 907.729 555.472 883.757 558.936C887.457 554.122 897.786 538.035 881.059 521.948C904.338 552.889 850.611 556.588 864.332 580.601C857.009 578.663 852.384 576.374 852.153 576.315C841.438 551.656 858.859 525.94 858.859 525.94C858.859 525.94 833.113 547.487 844.29 571.911C826.561 559.817 829.413 539.972 841.13 528.641C827.872 531.811 823.401 544.493 823.863 556.353C795.188 529.815 818.159 512.202 828.18 505.098C817.774 505.92 806.982 516.722 801.355 525.294C788.713 508.738 794.032 494.706 807.676 486.779C798.58 489.48 790.332 489.128 787.788 487.073C803.976 472.102 803.976 465.056 804.747 461.181C797.347 461.768 793.338 457.952 790.949 454.194C792.49 453.666 792.799 453.431 794.417 452.903V453.02ZM778.692 460.829C779.001 464.117 776.149 468.285 771.524 468.285C769.751 468.285 769.982 468.168 769.597 467.287C768.286 463.941 757.803 460.418 753.872 460.066C762.736 455.897 773.528 457.189 778.615 460.829H778.692ZM764.818 472.63C762.274 474.626 759.268 475.096 755.645 474.626C752.561 470.281 744.468 467.463 736.451 469.459C747.859 458.128 771.601 467.287 764.818 472.63ZM729.513 484.137C732.288 474.802 744.545 474.567 753.486 478.501C755.568 480.38 755.105 482.787 753.178 484.196C752.022 485.077 747.243 485.605 743.774 484.314C739.611 481.73 733.368 481.026 729.513 484.137ZM769.751 532.046C772.68 532.986 775.532 532.81 778.384 532.046C767.747 526.703 762.813 509.031 760.424 501.575C758.034 494.295 751.713 496.995 746.163 489.187C756.724 490.302 761.966 484.666 759.961 479.147C764.586 478.736 769.751 476.622 771.293 472.689C778.153 472.806 783.086 468.461 784.242 463.295C786.324 466.524 789.484 471.984 788.713 472.982C784.397 478.266 778.924 484.137 775.07 487.543C775.07 487.543 779.155 493.179 787.557 493.179C780.388 504.041 783.086 524.59 799.967 535.628C801.509 543.789 807.059 555.414 822.784 563.868C824.326 564.69 825.944 564.984 824.48 566.921C817.542 576.198 808.292 562.224 795.497 556.999C789.407 554.533 785.707 552.713 780.388 547.018C784.474 547.957 786.94 547.664 791.488 546.137C784.474 546.137 773.836 538.563 769.674 532.046H769.751ZM794.34 627.159C794.032 628.334 793.955 631.21 794.109 632.913C792.413 637.434 791.334 641.661 794.109 645.536C789.022 644.832 779.078 637.082 782.855 628.979C786.632 620.877 794.649 626.044 794.34 627.218V627.159ZM811.838 635.966C810.297 639.782 809.68 644.244 811.607 648.061C799.12 645.536 793.955 623.695 806.519 623.049C809.063 622.932 811.761 624.693 813.226 626.337C811.684 629.273 811.376 633.207 811.838 635.907V635.966ZM824.017 644.773C814.999 640.252 814.767 624.928 823.786 624.928C831.726 624.928 834.038 630.623 831.648 633.676C823.555 639.841 823.632 643.951 823.94 644.714L824.017 644.773ZM924.148 629.097C923.223 628.51 918.213 620.466 919.061 617.178C919.986 613.421 929.621 606.904 932.088 613.245C924.996 616.239 921.45 621.993 924.225 629.097H924.148ZM936.867 631.621C936.481 632.796 936.096 634.674 936.096 635.849C935.017 635.379 933.784 634.498 932.936 633.559C921.759 620.466 935.711 615.828 938.486 615.828C940.027 616.063 941.183 617.002 941.877 618.47C937.946 620.936 935.325 625.985 936.867 631.621ZM934.631 608.548C936.404 602.735 946.733 607.197 954.288 615.006C956.523 619.292 955.058 615.065 946.888 616.591C945.192 613.421 941.338 611.248 937.175 611.777C936.636 610.544 935.788 609.428 934.631 608.548ZM957.525 629.214C957.294 628.803 948.815 636.26 950.048 640.487C948.198 639.841 937.175 630.506 944.267 622.697C947.119 619.644 953.131 620.231 955.213 621.758C956.754 622.815 959.683 625.985 957.602 629.214H957.525ZM1047.48 607.021C1034.99 612.129 1023.05 618.411 1011.33 624.576C1005.78 627.512 1000.54 636.612 989.283 636.084C978.029 635.555 970.629 634.263 958.913 636.495L962.535 631.034C965.465 626.631 963.229 621.406 958.681 618.411C977.258 619.468 987.125 613.127 1004.78 603.264C1011.48 599.271 1014.49 596.16 1014.95 594.398C1016.57 588.586 1007.47 587.823 1000.31 565.277C1013.33 563.34 1023.28 562.4 1040.85 564.22C1047.87 568.565 1045.48 566.921 1051.57 571.383C1052.03 572.968 1052.41 574.671 1052.88 576.374C1055.04 584.358 1065.21 588.644 1065.75 593.048C1067.21 604.614 1058.58 601.972 1055.73 602.677C1053.34 603.264 1050.18 605.847 1047.56 606.904L1047.48 607.021ZM1062.97 613.245C1064.44 611.953 1066.98 611.718 1069.06 613.656C1073.3 617.472 1071.15 614.712 1066.52 617.824C1062.59 620.466 1060.51 623.813 1059.51 627.159C1058.74 626.455 1053.65 621.582 1062.9 613.303L1062.97 613.245ZM1065.75 641.074C1065.75 641.074 1060.12 627.746 1070.22 620.936C1074.15 618.294 1078.55 621.758 1079.7 625.633C1076.31 627.277 1072.92 630.33 1071.53 634.146C1069.14 636.084 1069.6 635.673 1065.67 641.074H1065.75ZM1080.63 645.301L1079.7 647.474C1079.7 647.474 1071.3 637.199 1080.94 630.212C1087.18 625.692 1093.04 629.919 1093.27 632.091C1093.96 639.841 1083.63 640.604 1080.7 645.243L1080.63 645.301ZM1165.8 607.256C1163.41 603.264 1157.56 598.038 1152.16 598.449C1164.88 610.074 1159.02 627.57 1148.77 632.796C1148.92 628.334 1148 622.932 1145.76 619.116C1148 627.923 1139.75 643.423 1122.25 643.423C1085.25 643.423 1090.96 643.657 1092.88 642.483C1098.66 638.667 1098.9 633.794 1098.66 631.856C1098.36 628.216 1093.11 624.048 1086.64 624.048C1083.94 624.048 1085.56 624.811 1083.94 622.051C1082.55 619.703 1080.4 617.883 1078.01 616.826C1077.62 614.947 1075.85 613.186 1073.38 611.014C1072.69 606.258 1084.87 608.019 1098.51 618.646C1101.67 621.112 1113.16 619.82 1118.32 619.82C1123.48 619.82 1123.64 615.3 1125.57 607.08C1127.03 600.974 1125.95 597.745 1121.56 586.296C1117.16 574.847 1080.55 585.004 1065.9 573.497C1061.28 569.857 1050.64 561.696 1044.09 558.349C1016.65 555.296 1005.62 558.349 982.346 561.637C944.883 569.035 917.134 573.966 916.979 573.849C916.979 573.849 916.825 583.184 908.809 587.94C908.809 582.069 903.798 579.309 903.798 579.309C905.34 595.279 895.396 608.959 884.99 613.538C887.071 611.131 890.694 607.608 887.225 603.44C886.84 606.082 852.23 630.271 845.909 632.502C843.828 641.015 834.578 639.9 832.342 639.548C833.576 638.315 834.732 637.434 836.042 636.436C844.29 625.692 826.021 616.709 816.386 622.873C810.297 617.531 801.817 617.942 796.807 623.049C791.18 618.822 783.78 619.116 779.309 624.928C779.078 617.589 782.47 613.127 796.113 614.125C806.674 607.961 819.701 609.839 826.407 611.777C836.505 607.139 848.144 589.055 853.232 584.593C853.232 584.593 867.338 588.762 875.355 587.764C870.036 575.904 869.805 570.796 874.969 565.571C891.08 567.802 907.806 558.76 914.436 551.539C937.946 541.734 945.963 522.183 941.877 505.274C949.123 504.98 959.838 510.147 979.494 511.732C999.227 513.258 1053.19 508.679 1075.39 516.429C1097.66 523.768 1141.52 524.296 1141.52 498.404C1141.52 488.306 1129.11 481.143 1115.47 481.143C1110.61 481.143 1080.63 483.198 1081.78 495.645C1074.92 494.529 1072.15 489.245 1072.22 485.429C1053.65 488.717 1035.92 492.768 1009.56 492.768C986.585 492.768 967.083 484.607 967.083 468.814C967.083 453.02 982.346 444.507 1006.94 444.507C1026.21 444.507 1040.24 450.202 1054.03 450.202C1079.32 450.202 1067.91 430.123 1061.36 428.244C1082.09 420.024 1094.5 440.28 1089.34 446.268C1121.33 428.772 1157.4 455.075 1155.4 468.285C1147.07 462.59 1134.2 460.359 1127.88 460.359C1113.08 460.359 1106.06 473.452 1071.38 460.535C1073.3 467.228 1085.87 470.223 1085.87 470.223C1049.95 476.74 1051.95 458.95 1010.02 459.537C994.91 459.772 990.825 463.119 990.825 469.049C990.825 479.03 1015.8 482.493 1043.32 473.804C1058.66 479.088 1085.71 480.967 1103.13 472.043C1103.13 472.043 1112.69 473.217 1121.48 467.228C1152.93 469.401 1165.88 484.137 1163.18 501.399C1160.48 518.66 1144.37 533.338 1112.69 533.22C1099.97 533.22 1090.57 532.516 1079.78 529.933C1098.74 535.334 1100.67 559.523 1130.35 559.523C1160.02 559.523 1162.33 573.497 1163.88 582.186C1161.02 579.133 1151.16 576.315 1145.53 576.55C1160.18 582.773 1166.42 595.396 1165.65 607.55L1165.8 607.256ZM1033.53 468.931C1023.74 471.456 1018.04 471.456 1011.56 471.456C1005.55 471.456 1000.15 469.812 1000.15 468.285C1000.15 465.115 1023.05 465.995 1033.53 468.931ZM904.415 340.939C944.113 331.193 983.888 331.134 1023.59 340.939L1043.86 442.041C1033.07 440.28 1021.81 437.403 1007.09 437.403C976.873 437.403 958.065 449.38 958.065 468.696C958.065 488.012 978.8 499.696 1009.71 499.696C1027.67 499.696 1041.78 497.935 1054.65 495.762L1056.65 505.861C1029.98 503.571 994.371 506.037 979.802 504.687C964.925 503.336 956.754 500.107 948.198 498.757L955.367 494.353C948.275 488.834 943.496 486.956 937.946 470.634C948.506 469.401 951.05 464.528 956.138 458.363C946.888 454.077 947.35 454.253 944.729 453.196C940.259 451.376 941.492 450.672 937.715 448.265C944.652 443.098 946.425 434.643 947.273 426.424C943.033 423.84 939.796 421.257 930.777 420.435C932.396 417.91 929.852 421.844 940.644 406.579C929.467 404.935 920.525 402.763 910.119 405.64C911.044 404.055 910.89 404.348 917.75 398.007C909.811 393.721 905.802 390.61 894.548 390.492L904.492 340.998L904.415 340.939Z" fill="white"/>
</svg>
